<svg width="104" height="113" viewBox="0 0 104 113" fill="none" xmlns="http://www.w3.org/2000/svg">
<path d="M74.75 17.8125H29.25C22.0703 17.8125 16.25 24.1924 16.25 32.0625V81.9375C16.25 89.8076 22.0703 96.1875 29.25 96.1875H74.75C81.9297 96.1875 87.75 89.8076 87.75 81.9375V32.0625C87.75 24.1924 81.9297 17.8125 74.75 17.8125Z" fill="#8C9EFF"/>
<path d="M74.75 17.8125H52V96.1875H74.75C78.1978 96.1875 81.5044 94.6862 83.9424 92.0138C86.3804 89.3414 87.75 85.7168 87.75 81.9375V32.0625C87.75 28.2832 86.3804 24.6586 83.9424 21.9862C81.5044 19.3138 78.1978 17.8125 74.75 17.8125Z" fill="#5F7CF9"/>
<path d="M65 53.4375H55.25V42.75C55.25 41.8052 54.9076 40.899 54.2981 40.2309C53.6886 39.5628 52.862 39.1875 52 39.1875C51.138 39.1875 50.3114 39.5628 49.7019 40.2309C49.0924 40.899 48.75 41.8052 48.75 42.75V53.4375H39C38.138 53.4375 37.3114 53.8128 36.7019 54.4809C36.0924 55.149 35.75 56.0552 35.75 57C35.75 57.9448 36.0924 58.851 36.7019 59.5191C37.3114 60.1872 38.138 60.5625 39 60.5625H48.75V71.25C48.75 72.1948 49.0924 73.101 49.7019 73.7691C50.3114 74.4372 51.138 74.8125 52 74.8125C52.862 74.8125 53.6886 74.4372 54.2981 73.7691C54.9076 73.101 55.25 72.1948 55.25 71.25V60.5625H65C65.862 60.5625 66.6886 60.1872 67.2981 59.5191C67.9076 58.851 68.25 57.9448 68.25 57C68.25 56.0552 67.9076 55.149 67.2981 54.4809C66.6886 53.8128 65.862 53.4375 65 53.4375Z" fill="#5F7CF9"/>
<path d="M65 53.4375H55.25V42.75C55.25 41.8052 54.9076 40.899 54.2981 40.2309C53.6886 39.5628 52.862 39.1875 52 39.1875V74.8125C52.862 74.8125 53.6886 74.4372 54.2981 73.7691C54.9076 73.101 55.25 72.1948 55.25 71.25V60.5625H65C65.862 60.5625 66.6886 60.1872 67.2981 59.5191C67.9076 58.851 68.25 57.9448 68.25 57C68.25 56.0552 67.9076 55.149 67.2981 54.4809C66.6886 53.8128 65.862 53.4375 65 53.4375Z" fill="#4062ED"/>
</svg>
