<svg width="66" height="60" viewBox="0 0 66 60" fill="none" xmlns="http://www.w3.org/2000/svg">
<path d="M46.762 59.6391C46.762 54.3375 41.2371 48.7477 33.9797 47.632V41.6602H28.7564V47.632C21.499 48.75 15.9844 54.3375 15.9844 59.6391C16.3015 59.3414 47.0895 59.3414 46.762 59.6391Z" fill="#DA865C"/>
<path d="M33.9797 41.6602H28.7564V45.4688H33.9797V41.6602Z" fill="#C97C55"/>
<path d="M53.8828 17.6484C53.8824 16.6532 53.5265 15.685 52.8686 14.8895C52.2107 14.094 51.2864 13.5142 50.2348 13.2375C50.608 12.4677 50.7416 11.6195 50.6211 10.7855C50.5006 9.95137 50.1307 9.16334 49.5515 8.50724C48.9723 7.85114 48.2061 7.35214 47.3365 7.0646C46.4669 6.77705 45.5271 6.71201 44.6196 6.87655C44.4824 6.11626 44.137 5.39956 43.6153 4.7924C43.0936 4.18524 42.4123 3.70712 41.634 3.40205C40.8558 3.09697 40.0057 2.97474 39.1619 3.0466C38.3181 3.11846 37.5077 3.38211 36.8053 3.81327C36.361 2.9532 35.6565 2.2259 34.7742 1.71646C33.8919 1.20701 32.8683 0.936462 31.8231 0.936462C30.7779 0.936462 29.7543 1.20701 28.872 1.71646C27.9897 2.2259 27.2852 2.9532 26.8409 3.81327C26.1386 3.38319 25.3287 3.12044 24.4856 3.04916C23.6425 2.97788 22.7931 3.10035 22.0157 3.40533C21.2382 3.71031 20.5575 4.18801 20.0361 4.79454C19.5147 5.40108 19.1693 6.11701 19.0317 6.87655C18.7071 6.82045 18.3772 6.79376 18.0469 6.79686C17.2063 6.79552 16.3787 6.98501 15.6391 7.34814C14.8995 7.71127 14.2714 8.23654 13.8117 8.87629C13.3521 9.51604 13.0754 10.25 13.0068 11.0116C12.9383 11.7732 13.08 12.5383 13.4191 13.2375C12.6102 13.4495 11.8725 13.8419 11.2729 14.3791C10.6733 14.9164 10.2309 15.5813 9.98603 16.3135C9.74112 17.0457 9.70142 17.822 9.87056 18.5717C10.0397 19.3214 10.4123 20.0208 10.9545 20.6062C10.0312 22.0224 9.62906 23.6694 9.80653 25.3077C9.984 26.9459 10.7318 28.49 11.9412 29.7152C13.1506 30.9404 14.7585 31.7829 16.5309 32.1201C18.3033 32.4572 20.1479 32.2715 21.7962 31.5899C23.4444 30.9082 24.8105 29.7663 25.6956 28.3301C26.5807 26.894 26.9387 25.2386 26.7175 23.6047C26.4962 21.9709 25.7073 20.4438 24.4655 19.2457C23.2237 18.0475 21.5938 17.2408 19.8129 16.943C19.7476 16.5471 19.6245 16.1608 19.4468 15.7945C20.3628 15.5524 21.1848 15.0798 21.818 14.4312C22.4511 13.7826 22.8697 12.9845 23.0252 12.1289C24.0691 12.3186 25.1521 12.2036 26.1198 11.8004C27.0875 11.3972 27.8902 10.7263 28.4135 9.88358C29.3852 10.5834 30.5886 10.9642 31.8282 10.9642C33.0679 10.9642 34.2712 10.5834 35.243 9.88358C35.767 10.7262 36.5703 11.397 37.5383 11.8002C38.5063 12.2034 39.5896 12.3184 40.6338 12.1289C40.7883 12.9845 41.2062 13.7828 41.839 14.4315C42.4718 15.0803 43.2937 15.5528 44.2097 15.7945C44.0332 16.1612 43.9102 16.5473 43.8436 16.943C42.0627 17.2408 40.4328 18.0475 39.191 19.2457C37.9492 20.4438 37.1603 21.9709 36.939 23.6047C36.7178 25.2386 37.0758 26.894 37.9609 28.3301C38.846 29.7663 40.212 30.9082 41.8603 31.5899C43.5086 32.2715 45.3532 32.4572 47.1256 32.1201C48.898 31.7829 50.5059 30.9404 51.7153 29.7152C52.9247 28.49 53.6725 26.9459 53.85 25.3077C54.0274 23.6694 53.6253 22.0224 52.702 20.6062C53.4677 19.7781 53.8861 18.7302 53.8828 17.6484Z" fill="#39240F"/>
<path d="M13.9219 29.0391C14.7701 30.0234 14.6077 32.7703 14.2158 33.0516C13.8239 33.3328 10.8642 32.8172 10.0031 31.8352C9.59526 31.3627 9.41054 30.7624 9.48959 30.1661C9.56864 29.5699 9.90499 29.0266 10.4246 28.6559C10.9443 28.2851 11.6047 28.1171 12.2606 28.189C12.9164 28.2609 13.514 28.5666 13.9219 29.0391ZM49.6031 29.0391C48.7549 30.0234 48.9173 32.7703 49.3092 33.0516C49.7011 33.3328 52.6737 32.8172 53.5219 31.8352C53.9297 31.3627 54.1145 30.7624 54.0354 30.1661C53.9564 29.5699 53.62 29.0266 53.1004 28.6559C52.5807 28.2851 51.9203 28.1171 51.2644 28.189C50.6086 28.2609 50.011 28.5666 49.6031 29.0391Z" fill="#D7805D"/>
<path d="M50.1574 29.6367C51.4877 39.9047 43.1294 44.1797 31.8527 44.1797C20.576 44.1797 11.7047 39.9047 13.0453 29.6484C14.4246 19.3805 22.6617 12.0211 31.6078 12.0211C40.5539 12.0211 48.7781 19.3687 50.1574 29.6367Z" fill="#DA865C"/>
<path d="M33.2578 31.1461C33.2409 30.7564 33.0587 30.3878 32.7494 30.1175C32.4402 29.8472 32.0278 29.6962 31.5988 29.6962C31.1698 29.6962 30.7574 29.8472 30.4481 30.1175C30.1388 30.3878 29.9567 30.7564 29.9398 31.1461" stroke="#8B3607" stroke-width="3" stroke-linecap="round" stroke-linejoin="round"/>
<path d="M20.3852 22.1906C20.5858 21.9639 20.836 21.7776 21.1201 21.6436C21.4042 21.5097 21.7158 21.4309 22.0352 21.4125C22.3422 21.3964 22.6497 21.4354 22.9401 21.5273" stroke="#3D2513" stroke-width="5" stroke-linecap="round" stroke-linejoin="round"/>
<path d="M22.177 30.3914C23.5724 30.3914 24.7036 29.3631 24.7036 28.0945C24.7036 26.826 23.5724 25.7977 22.177 25.7977C20.7817 25.7977 19.6505 26.826 19.6505 28.0945C19.6505 29.3631 20.7817 30.3914 22.177 30.3914Z" fill="white"/>
<path d="M22.177 29.557C23.0655 29.557 23.7858 28.9022 23.7858 28.0945C23.7858 27.2868 23.0655 26.632 22.177 26.632C21.2885 26.632 20.5683 27.2868 20.5683 28.0945C20.5683 28.9022 21.2885 29.557 22.177 29.557Z" fill="#3D2513"/>
<path d="M23.0974 28.3031C23.4776 28.3031 23.7858 28.023 23.7858 27.6774C23.7858 27.3317 23.4776 27.0516 23.0974 27.0516C22.7172 27.0516 22.4091 27.3317 22.4091 27.6774C22.4091 28.023 22.7172 28.3031 23.0974 28.3031Z" fill="white"/>
<path d="M20.081 26.8102C20.2895 26.5274 20.5644 26.2903 20.8859 26.1159C21.2075 25.9415 21.5676 25.8341 21.9403 25.8016C22.313 25.7691 22.689 25.8122 23.0411 25.9279C23.3933 26.0435 23.7128 26.2288 23.9766 26.4703" stroke="#3D2513" stroke-width="2" stroke-linecap="round" stroke-linejoin="round"/>
<path d="M42.5829 22.1906C42.3823 21.9639 42.1321 21.7776 41.848 21.6436C41.5639 21.5097 41.2523 21.4309 40.9329 21.4125C40.6259 21.3964 40.3184 21.4354 40.028 21.5273" stroke="#3D2513" stroke-width="5" stroke-linecap="round" stroke-linejoin="round"/>
<path d="M40.7911 30.3914C42.1865 30.3914 43.3177 29.3631 43.3177 28.0945C43.3177 26.826 42.1865 25.7977 40.7911 25.7977C39.3957 25.7977 38.2645 26.826 38.2645 28.0945C38.2645 29.3631 39.3957 30.3914 40.7911 30.3914Z" fill="white"/>
<path d="M40.7911 29.557C41.6796 29.557 42.3998 28.9022 42.3998 28.0945C42.3998 27.2868 41.6796 26.632 40.7911 26.632C39.9026 26.632 39.1823 27.2868 39.1823 28.0945C39.1823 28.9022 39.9026 29.557 40.7911 29.557Z" fill="#3D2513"/>
<path d="M42.8871 26.8102C42.6782 26.5294 42.4036 26.294 42.083 26.1209C41.7624 25.9477 41.4037 25.8411 41.0325 25.8086C40.6613 25.7762 40.2868 25.8187 39.9358 25.933C39.5848 26.0474 39.2659 26.2309 39.0019 26.4703" stroke="#3D2513" stroke-width="2" stroke-linecap="round" stroke-linejoin="round"/>
<path d="M41.9384 28.3031C42.3185 28.3031 42.6267 28.023 42.6267 27.6774C42.6267 27.3317 42.3185 27.0516 41.9384 27.0516C41.5582 27.0516 41.25 27.3317 41.25 27.6774C41.25 28.023 41.5582 28.3031 41.9384 28.3031Z" fill="white"/>
<path d="M39.6516 36.3281C38.1562 37.2656 35.8359 38.6719 31.9687 38.6719C28.1016 38.6719 26.1319 37.3102 24.6005 36.4102" stroke="#8B3607" stroke-width="2" stroke-linejoin="round"/>
<path d="M39.7444 36.9891C39.8111 36.8959 39.8489 36.7881 39.854 36.677C39.859 36.566 39.831 36.4557 39.773 36.3579C39.715 36.26 39.629 36.1782 39.5242 36.121C39.4193 36.0638 39.2995 36.0333 39.1772 36.0328M24.5798 36.9891C24.513 36.8957 24.4751 36.7877 24.4702 36.6765C24.4653 36.5652 24.4935 36.4548 24.5518 36.3569C24.6102 36.2589 24.6965 36.1772 24.8017 36.1201C24.9069 36.0631 25.0271 36.0329 25.1496 36.0328" stroke="#8B3607" stroke-linecap="round" stroke-linejoin="round"/>
<path d="M19.1608 35.2056C21.0021 35.146 22.4581 34.1633 22.413 33.0107C22.3678 31.8581 20.8385 30.9721 18.9972 31.0317C17.1559 31.0913 15.6998 32.074 15.745 33.2266C15.7902 34.3792 17.3195 35.2652 19.1608 35.2056Z" fill="#D67656"/>
<path d="M17.3508 33.3188C17.8591 33.3188 18.2712 32.9441 18.2712 32.482C18.2712 32.0199 17.8591 31.6453 17.3508 31.6453C16.8425 31.6453 16.4304 32.0199 16.4304 32.482C16.4304 32.9441 16.8425 33.3188 17.3508 33.3188Z" fill="#D67656"/>
<path d="M47.2297 33.227C47.2748 32.0745 45.8187 31.0918 43.9774 31.0321C42.1361 30.9725 40.6069 31.8585 40.5617 33.0111C40.5165 34.1637 41.9726 35.1464 43.8139 35.206C45.6552 35.2657 47.1845 34.3796 47.2297 33.227Z" fill="#D67656"/>
<path opacity="0.2" d="M45.6225 33.3188C46.1308 33.3188 46.5429 32.9441 46.5429 32.482C46.5429 32.0199 46.1308 31.6453 45.6225 31.6453C45.1142 31.6453 44.7021 32.0199 44.7021 32.482C44.7021 32.9441 45.1142 33.3188 45.6225 33.3188Z" fill="white"/>
<path opacity="0.2" d="M17.3508 33.3188C17.8591 33.3188 18.2712 32.9441 18.2712 32.482C18.2712 32.0199 17.8591 31.6453 17.3508 31.6453C16.8425 31.6453 16.4304 32.0199 16.4304 32.482C16.4304 32.9441 16.8425 33.3188 17.3508 33.3188Z" fill="white"/>
<path d="M47.0714 15.7828C46.6142 15.784 46.1607 15.857 45.7308 15.9984C45.9443 15.1033 45.8628 14.1708 45.4966 13.3176C45.1304 12.4643 44.4957 11.7281 43.6718 11.2009C42.8479 10.6737 41.8714 10.379 40.8643 10.3536C39.8572 10.3281 38.8641 10.5731 38.0093 11.0578C37.8467 9.55946 37.077 8.16963 35.8497 7.1586C34.6225 6.14758 33.0255 5.58762 31.3693 5.58762C29.7132 5.58762 28.1162 6.14758 26.8889 7.1586C25.6617 8.16963 24.892 9.55946 24.7294 11.0578C23.8793 10.5773 22.8932 10.3336 21.8925 10.3565C20.8919 10.3795 19.9205 10.6682 19.0982 11.187C18.2759 11.7058 17.6386 12.432 17.2648 13.2762C16.8911 14.1203 16.7973 15.0455 16.995 15.9375C16.6144 15.8297 16.218 15.7752 15.8194 15.7758C15.0319 15.7758 14.2621 15.988 13.6072 16.3855C12.9524 16.7831 12.4418 17.3483 12.1401 18.0095C11.8384 18.6708 11.7591 19.3985 11.9122 20.1007C12.0652 20.803 12.4438 21.4482 13.0001 21.9549C13.5564 22.4616 14.2654 22.807 15.0376 22.9475C15.8097 23.088 16.6104 23.0173 17.3383 22.7443C18.0663 22.4713 18.6889 22.0083 19.1275 21.4137C19.5661 20.8192 19.8011 20.1198 19.8026 19.4039C19.8026 19.3406 19.8026 19.2773 19.8026 19.2141C20.4818 19.5127 21.2253 19.6712 21.9797 19.678C22.7342 19.6849 23.481 19.54 24.1666 19.2538C24.8523 18.9676 25.4599 18.547 25.9458 18.0223C26.4317 17.4976 26.7841 16.8817 26.9775 16.2187C28.1929 17.1856 29.753 17.7186 31.3681 17.7186C32.9831 17.7186 34.5432 17.1856 35.7586 16.2187C35.956 16.8961 36.3189 17.5242 36.8204 18.0563C37.3219 18.5883 37.9491 19.0107 38.6551 19.2918C39.3611 19.573 40.1277 19.7057 40.898 19.68C41.6682 19.6544 42.4222 19.4711 43.1037 19.1437C43.1037 19.2305 43.0882 19.3172 43.0882 19.4039C43.0882 20.1201 43.3218 20.8202 43.7595 21.4157C44.1972 22.0112 44.8193 22.4753 45.5471 22.7494C46.2749 23.0234 47.0758 23.0951 47.8485 22.9554C48.6212 22.8157 49.3309 22.4708 49.888 21.9644C50.445 21.458 50.8244 20.8128 50.9781 20.1103C51.1318 19.4079 51.0529 18.6798 50.7514 18.0182C50.4499 17.3565 49.9394 16.791 49.2844 16.3931C48.6293 15.9952 47.8592 15.7828 47.0714 15.7828Z" fill="#3D2513"/>
<path d="M40.3296 56.7187H46.2232C44.8723 52.9992 41.0979 49.575 36.2458 48.143C34.7386 48.7371 33.1114 49.0381 31.4687 49.0268C29.8259 49.0155 28.2039 48.6921 26.7068 48.0773C21.7516 49.4648 17.8844 52.9383 16.5129 56.7187H22.4065V59.4586C27.6684 59.407 35.0702 59.407 40.3296 59.4586V56.7187Z" fill="#C0322C"/>
<path d="M22.4065 58.5656H40.3296V57.6281H22.4065V58.5656ZM45.4395 55.05H17.2889C17.1136 55.3594 16.9538 55.6711 16.8094 55.9875H45.9242C45.7824 55.6711 45.6174 55.3594 45.4395 55.05ZM40.2342 49.8937H22.4916C22.0097 50.1838 21.545 50.4968 21.0994 50.8312H41.6264C41.1803 50.4973 40.7156 50.1844 40.2342 49.8937ZM43.4878 52.4719H19.2406C18.9467 52.7844 18.6708 53.0969 18.413 53.4094H44.3206C44.0627 53.0883 43.7817 52.7766 43.4878 52.4719Z" fill="#C7342E"/>
<path d="M30.8447 49.0031C30.6513 49.0031 30.458 48.9773 30.2698 48.9609H30.1692C29.9733 48.9398 29.7799 48.9164 29.5891 48.8883H29.5685C29.3726 48.8578 29.1818 48.825 28.9936 48.7875H28.9498C28.759 48.7477 28.5759 48.7055 28.3929 48.6609L28.3336 48.6445C28.148 48.5977 27.9675 48.5484 27.7896 48.4922H27.7767C27.4249 48.3818 27.0806 48.2526 26.7455 48.1055H26.7223C26.3484 48.2109 25.9798 48.3398 25.6162 48.4594C27.1116 49.3969 29.2256 49.9922 31.5691 49.9922C33.8379 49.9922 35.8926 49.4414 37.3776 48.5484C37.0116 48.4125 36.6403 48.2836 36.2587 48.1711C36.0963 48.2391 35.9287 48.3047 35.7431 48.3656H35.7251C35.3691 48.4913 35.0059 48.5993 34.6371 48.6891C34.4652 48.7313 34.2822 48.7711 34.088 48.8086L34.0209 48.8203C33.8353 48.8555 33.6497 48.8859 33.4589 48.9141H33.4434C33.263 48.9398 33.0773 48.9609 32.8891 48.9797H32.8066C32.6236 48.9984 32.438 49.0102 32.2498 49.0195H32.1389C31.9455 49.0195 31.7522 49.0336 31.5562 49.0336C31.3603 49.0336 31.1463 49.0336 30.9452 49.0195L30.8447 49.0031Z" fill="#FFE9E8"/>
</svg>
