<svg width="48" height="48" viewBox="0 0 48 48" fill="none" xmlns="http://www.w3.org/2000/svg">
<mask id="mask0_7_42" style="mask-type:luminance" maskUnits="userSpaceOnUse" x="0" y="0" width="48" height="48">
<path d="M0 0H47.5V47.5H0V0Z" fill="white"/>
</mask>
<g mask="url(#mask0_7_42)">
<path d="M45 33.75C45 35.0761 44.4732 36.3479 43.5355 37.2855C42.5979 38.2232 41.3261 38.75 40 38.75H7.5C6.17392 38.75 4.90215 38.2232 3.96447 37.2855C3.02678 36.3479 2.5 35.0761 2.5 33.75V9.14125C2.5 6.38 9.73875 1.25 12.5 1.25H38.2812C42.1488 1.25 45 4.14125 45 7.96875V33.75Z" fill="#992222"/>
<path d="M42.5 38.75C42.5 40.0761 41.9732 41.3479 41.0355 42.2855C40.0979 43.2232 38.8261 43.75 37.5 43.75H10C8.67392 43.75 7.40215 43.2232 6.46447 42.2855C5.52679 41.3479 5 40.0761 5 38.75V8.75C5 3.60125 4.97375 3.75 11.25 3.75H37.5C38.8261 3.75 40.0979 4.27679 41.0355 5.21447C41.9732 6.15215 42.5 7.42392 42.5 8.75V38.75Z" fill="#CCD6DD"/>
<path d="M40 40C40 40.9946 39.6049 41.9484 38.9017 42.6517C38.1984 43.3549 37.2446 43.75 36.25 43.75H6.25C5.25544 43.75 4.30161 43.3549 3.59835 42.6517C2.89509 41.9484 2.5 40.9946 2.5 40V10C2.5 9.00544 2.89509 8.05161 3.59835 7.34835C4.30161 6.64509 5.25544 6.25 6.25 6.25H36.25C37.2446 6.25 38.1984 6.64509 38.9017 7.34835C39.6049 8.05161 40 9.00544 40 10V40Z" fill="#E1E8ED"/>
<path d="M40 41.25C40 42.5761 39.4732 43.8479 38.5355 44.7855C37.5979 45.7232 36.3261 46.25 35 46.25H8.75C7.42392 46.25 6.15215 45.7232 5.21447 44.7855C4.27678 43.8479 3.75 42.5761 3.75 41.25V13.75C3.75 12.4239 4.27678 11.1521 5.21447 10.2145C6.15215 9.27679 7.42392 8.75 8.75 8.75H35C36.3261 8.75 37.5979 9.27679 38.5355 10.2145C39.4732 11.1521 40 12.4239 40 13.75V41.25Z" fill="#FF0000"/>
<path d="M37.5 41.25C37.5 42.5761 36.9732 43.8479 36.0355 44.7855C35.0979 45.7232 33.8261 46.25 32.5 46.25H8.75C7.42392 46.25 6.15215 45.7232 5.21447 44.7855C4.27678 43.8479 3.75 42.5761 3.75 41.25V16.25C3.75 14.9239 4.27678 13.6521 5.21447 12.7145C6.15215 11.7768 7.42392 11.25 8.75 11.25H32.9187C35.68 11.25 37.5 13.07 37.5 15.8313V41.25Z" fill="#EE5555"/>
<path d="M8.75 8.75C6.64125 8.75 6.58625 6.3475 7.5 5.3125C8.54 4.13625 10.1562 3.75 13.0475 3.75H15V1.25H11.6013C6.64125 1.25 2.5 4.375 2.5 7.96875V41.25C2.5 42.5761 3.02678 43.8479 3.96447 44.7855C4.90215 45.7232 6.17392 46.25 7.5 46.25H10V8.75H8.75Z" fill="#992222"/>
</g>
</svg>
