<svg width="100" height="102" viewBox="0 0 100 102" fill="none" xmlns="http://www.w3.org/2000/svg">
<path d="M70.5491 32.0109C72.1778 30.3496 74.8197 30.3496 76.4484 32.0109C78.0771 33.6728 78.0771 36.3674 76.4484 38.0287L45.1175 69.9874C43.4882 71.6487 40.8464 71.6487 39.2176 69.9874L23.5516 54.0081C21.9229 52.3468 21.9229 49.6521 23.5516 47.9908C25.1809 46.3289 27.8227 46.3289 29.4514 47.9908L42.1676 60.9612L70.5491 32.0109ZM49.9997 0C63.8048 0 76.3062 5.70933 85.3544 14.9385C94.4026 24.1671 100 36.9191 100 50.9997C100 65.0826 94.4032 77.8323 85.3544 87.0615C76.3062 96.2907 63.8048 102 49.9997 102C36.1935 102 23.6933 96.2912 14.6456 87.0615C5.59625 77.8323 0 65.0826 0 50.9997C0 36.9191 5.59738 24.1671 14.6456 14.9385C23.6933 5.70818 36.1935 0 49.9997 0ZM79.4551 20.9558C71.9175 13.268 61.5031 8.51238 49.9997 8.51238C38.4958 8.51238 28.0813 13.268 20.5449 20.9558C13.0079 28.6435 8.34547 39.2668 8.34547 50.9997C8.34547 62.7343 13.0079 73.357 20.5449 81.0442C28.0813 88.732 38.4958 93.4871 49.9997 93.4871C61.5031 93.4871 71.9175 88.732 79.4551 81.0442C86.9921 73.357 91.654 62.7343 91.654 50.9997C91.654 39.2668 86.9921 28.6435 79.4551 20.9558Z" fill="#8C9EFF"/>
</svg>
